<svg width="215" height="7" viewBox="0 0 215 7" fill="none" xmlns="http://www.w3.org/2000/svg">
<path fill-rule="evenodd" clip-rule="evenodd" d="M199.058 4.91351C202.856 5.07 206.389 5.19835 209.88 5.37007C210.852 5.41782 212.642 5.42743 212.415 5.73519C212.164 6.07375 210.379 6.0235 209.204 5.9941C202.873 5.8373 196.557 5.64368 190.229 5.4824C171.12 4.9955 151.94 4.78064 132.728 4.65543C107.402 4.49037 82.1333 4.81112 56.8443 4.99798C43.4824 5.09687 30.1293 5.34754 16.7415 5.17887C13.0986 5.13277 9.55636 4.97337 6.10603 4.70724C0.272857 4.25731 -1.56136 3.22703 1.3865 2.00629C2.94763 1.3596 4.31295 0.668386 7.37629 0.288641C9.05576 0.0804886 10.5376 -0.0607411 11.7009 0.466918C12.687 0.914451 14.6231 0.966019 16.5962 1.11186C23.6798 1.63632 31.0696 1.393 37.7728 1.1631C46.3305 0.869181 54.9868 0.706912 63.5293 0.505921C73.5394 0.270286 83.6983 0.156093 93.8257 0.0785837C106.385 -0.0176695 118.93 0.170035 131.489 0.0327233C135.202 -0.00857658 139.381 -0.0505044 142.937 0.449857C143.03 0.4629 143.228 0.464877 143.303 0.451181C147.096 -0.241696 151.248 1.03149 155.078 0.341839C155.482 0.269427 156.462 0.246938 156.853 0.308421C161.821 1.0899 167.842 0.599832 173.123 1.02857C175.022 1.18259 177.259 1.28749 179.273 0.971056C179.636 0.91408 180.37 0.88441 180.707 0.930025C185.258 1.54749 190.947 1.12272 195.445 1.77903C195.742 1.82231 196.239 1.86011 196.518 1.83279C201.321 1.36746 204.638 2.70835 209.507 2.37809C211.071 2.27208 213.816 3.58675 212.526 3.9596C211.189 4.34616 211.763 4.39391 213.16 4.51652C213.975 4.58835 214.976 4.66911 214.526 4.93408C214.038 5.22105 212.983 5.13309 211.968 5.09247C208.402 4.9495 204.824 4.82154 201.245 4.69586C200.536 4.67091 199.727 4.62437 199.058 4.91351Z" fill="white" fill-opacity="0.6"/>
</svg>
